Coordinates
version=1
nRows=9
nColumns=24
inDegrees=yes

Units are S.I. units (second, meters, Newtons, ...)
Angles are in degrees.

endheader
time	pelvis_tilt	pelvis_list	pelvis_rotation	pelvis_tx	pelvis_ty	pelvis_tz	hip_flexion_r	hip_adduction_r	hip_rotation_r	knee_angle_r	ankle_angle_r	subtalar_angle_r	mtp_angle_r	hip_flexion_l	hip_adduction_l	hip_rotation_l	knee_angle_l	ankle_angle_l	subtalar_angle_l	mtp_angle_l	lumbar_extension	lumbar_bending	lumbar_rotation
      4.64000000	    -12.37007831	      1.29913949	      0.84953830	      0.18500549	     -0.00398005	     -0.05574124	     33.73594656	     -6.71204070	     -8.28613381	    -47.63694124	     -4.88578561	      4.50104738	     28.86745019	      3.78156526	      6.34998776	     -2.20979671	     -3.10867447	     -0.62688612	      5.65066881	      8.07796630	      9.60952981	     -3.49396480	     -4.44380895
      4.64500000	    -12.29236546	      1.18001697	      0.96633758	      0.18946239	     -0.00407988	     -0.05604580	     33.82663895	     -6.57351075	     -8.60733545	    -46.60036201	     -4.72488528	      4.15446853	     28.23366610	      3.41410916	      6.22931576	     -2.15774214	     -3.09313596	     -0.52845941	      5.81937866	      8.20118806	      9.52798356	     -3.35301138	     -4.56132071
      4.65000000	    -12.31720520	      1.06007370	      1.02754146	      0.19391038	     -0.00431742	     -0.05628532	     34.03553055	     -6.39500751	     -8.85582434	    -45.53979378	     -4.59521790	      3.88218429	     27.76009350	      3.17051120	      6.10437107	     -2.11956302	     -3.10113057	     -0.41813659	      5.89922228	      8.30020285	      9.55809150	     -3.19251916	     -4.60149183
      4.65500000	    -12.37921502	      0.96197204	      1.06003687	      0.19836155	     -0.00460761	     -0.05650263	     34.28266870	     -6.22738598	     -9.05978080	    -44.45161677	     -4.49467226	      3.78002732	     27.51309530	      2.96683872	      5.99973338	     -2.06924547	     -3.11157873	     -0.32328439	      5.94888649	      8.36086506	      9.62998365	     -3.04528506	     -4.59118978
      4.66000000	    -12.28370839	      0.83905940	      1.16457142	      0.20279764	     -0.00469645	     -0.05670642	     34.31806449	     -6.05930426	     -9.36293528	    -43.34191625	     -4.35457784	      3.67279381	     26.81284881	      2.59171828	      5.85597490	     -2.05484689	     -3.10891071	     -0.21674020	      6.22091599	      8.54836602	      9.51420503	     -2.90057758	     -4.68197620
      4.66500000	    -12.37630750	      0.75765047	      1.18810934	      0.20718162	     -0.00503964	     -0.05687066	     34.58777521	     -5.89077350	     -9.55296634	    -42.21849069	     -4.30664875	      3.62395152	     26.61950353	      2.44403221	      5.76717583	     -2.02817481	     -3.15231421	     -0.12244453	      6.23807126	      8.59872195	      9.60415100	     -2.77288228	     -4.68366625
      4.67000000	    -12.43728000	      0.65941991	      1.25048540	      0.21156335	     -0.00532518	     -0.05703018	     34.79374716	     -5.71693837	     -9.78303644	    -41.05911507	     -4.28896973	      3.58635880	     26.39622987	      2.26723091	      5.65237787	     -1.97048074	     -3.20293346	     -0.01814288	      6.33520722	      8.67584176	      9.65293837	     -2.64054520	     -4.72945149
      4.67500000	    -12.41396807	      0.54283476	      1.35651603	      0.21595493	     -0.00549218	     -0.05716679	     34.87471015	     -5.53878472	    -10.07575383	    -39.86862506	     -4.28299710	      3.55519820	     26.03833578	      1.99857236	      5.50622940	     -1.93930792	     -3.24629037	      0.09618453	      6.59534964	      8.81795404	      9.60269174	     -2.51187931	     -4.84291523
      4.68000000	    -12.40591006	      0.44376819	      1.39750135	      0.22031978	     -0.00569728	     -0.05726483	     34.97660097	     -5.33247289	    -10.24572120	    -38.66597225	     -4.29119833	      3.70682930	     25.67325272	      1.75550502	      5.37675736	     -1.97816194	     -3.30456866	      0.20752889	      6.84587789	      8.98769114	      9.56521533	     -2.37095056	     -4.87631035
